<?xml version="1.0" encoding="iso-8859-1"?>
<!-- Generator: Adobe Illustrator 19.0.0, SVG Export Plug-In . SVG Version: 6.00 Build 0)  -->
<svg version="1.1" id="Capa_1" xmlns="http://www.w3.org/2000/svg" xmlns:xlink="http://www.w3.org/1999/xlink" x="0px" y="0px"
	 viewBox="0 0 480.025 480.025" style="enable-background:new 0 0 480.025 480.025;" xml:space="preserve">
<g>
	<g>
		<path d="M472.061,311.413l7.952-142.952c0.239-4.279-2.935-7.986-7.2-8.408l-78.176-7.816c-7.847-5.354-17.125-8.22-26.624-8.224
			c-5.085-0.002-10.138,0.809-14.968,2.4c-13.34-13.518-29.485-23.942-47.296-30.536c0.072-0.2,0.176-0.408,0.24-0.608
			l13.408-32.208c1.683-4.085-0.264-8.761-4.349-10.445c-0.963-0.397-1.994-0.602-3.035-0.603h-112c-17.673,0-32,14.327-32,32v8
			c0.006,2.093,0.218,4.18,0.632,6.232c-15.625,6.517-29.788,16.094-41.656,28.168c-4.833-1.591-9.888-2.402-14.976-2.4
			c-9.499,0.004-18.777,2.87-26.624,8.224l-78.176,7.816c-4.265,0.422-7.439,4.129-7.2,8.408l7.936,142.984l-7.776,38.968
			c-0.884,4.329,1.909,8.555,6.238,9.438c0.527,0.108,1.064,0.162,1.602,0.162h56c4.418,0.003,8.003-3.576,8.006-7.994
			c0.001-1.022-0.194-2.034-0.574-2.982l-15.432-38.56v-77.24l46.864,6.696c1.155,0.167,2.332,0.077,3.448-0.264
			c1.887,0.23,3.787,0.345,5.688,0.344c1.416,0,2.808-0.088,4.192-0.216c14.425,20.826,35.124,36.502,59.08,44.744l-3.928,27.472
			h-27.344c-2.611,0.001-5.056,1.276-6.552,3.416l-56,80c-2.532,3.621-1.649,8.609,1.972,11.14c1.343,0.939,2.941,1.443,4.58,1.444
			h304c4.418-0.003,7.998-3.586,7.996-8.004c-0.001-1.638-0.505-3.237-1.444-4.58l-56-80c-1.496-2.14-3.941-3.415-6.552-3.416
			h-27.344l-3.928-27.472c23.956-8.242,44.655-23.918,59.08-44.744c1.384,0.128,2.776,0.216,4.192,0.216
			c1.901,0.001,3.801-0.114,5.688-0.344c1.115,0.345,2.293,0.435,3.448,0.264l46.864-6.696v77.24l-15.432,38.56
			c-1.644,4.101,0.349,8.758,4.45,10.402c0.948,0.38,1.961,0.575,2.982,0.574h56c4.418,0.001,8.001-3.58,8.002-7.998
			c0-0.538-0.054-1.075-0.162-1.602L472.061,311.413z M184.013,104.013c0-8.837,7.163-16,16-16h100l-9.016,21.68
			c-3.636,10.934-13.862,18.313-25.384,18.32h-9.6c-8.837,0-16-7.163-16-16c0-4.418-3.582-8-8-8h-32c-4.418,0-8,3.582-8,8v13.848
			c-4.948-2.857-7.997-8.135-8-13.848V104.013z M272.013,143.389v40.624c0,17.673-14.327,32-32,32c-17.673,0-32-14.327-32-32v-48
			v-16h17.016c3.663,14.119,16.398,23.983,30.984,24h9.6C267.758,143.962,269.898,143.753,272.013,143.389z M131.223,217.613
			c-5.54,4.16-12.283,6.406-19.211,6.4c-2.201-0.004-4.397-0.232-6.552-0.68c-1.364-0.282-2.777-0.208-4.104,0.216l-52.208-7.456
			c-4.373-0.627-8.428,2.409-9.055,6.783c-0.054,0.377-0.081,0.757-0.081,1.137v88c0,1.019,0.193,2.029,0.568,2.976l11.616,29.024
			H17.773l6.08-30.4c0.144-0.672,0.198-1.361,0.16-2.048l-7.584-136.352l70.832-7.088c2.003,0.211,4.011-0.362,5.6-1.6
			c14.108-10.594,34.132-7.745,44.725,6.363C148.18,186.995,145.331,207.019,131.223,217.613z M312.014,336.014
			c0-0.38-0.027-0.76-0.081-1.137l-0.976-6.864h20.888l44.8,64H103.381l44.8-64h20.888l-0.976,6.864
			c-0.627,4.373,2.409,8.427,6.783,9.055c0.377,0.054,0.757,0.081,1.137,0.081h48c4.418,0,8-3.582,8-8v-8h16v8c0,4.418,3.582,8,8,8
			h48C308.431,344.013,312.013,340.432,312.014,336.014z M216.013,294.573v33.44h-30.776l5.496-38.4
			c7.87,2.097,15.872,3.666,23.952,4.696v0L216.013,294.573z M232.013,312.013v-16.208c2.656,0.104,5.312,0.208,8,0.208
			s5.344-0.104,8-0.208v16.208H232.013z M264.013,328.013v-33.44l1.336-0.272c8.078-1.035,16.078-2.612,23.944-4.72l5.496,38.432
			H264.013z M285.021,274.053l-21.808,4.36c-15.409,2.133-31.039,2.133-46.448,0l-21.784-4.36
			c-24.483-5.754-46.417-19.347-62.464-38.712c23.928-11.266,34.193-39.797,22.927-63.725c-3.147-6.685-7.799-12.551-13.591-17.139
			c9.922-9.229,21.415-16.609,33.936-21.792c4.234,4.981,9.898,8.539,16.224,10.192v41.136c0,26.51,21.49,48,48,48
			c26.51,0,48-21.49,48-48v-46.464c2.846-1.711,5.483-3.749,7.856-6.072c0.488-0.488,0.912-1.032,1.376-1.544
			c15.175,5.301,29.104,13.654,40.928,24.544c-20.736,16.417-24.236,46.535-7.819,67.271c4.586,5.792,10.449,10.444,17.131,13.593
			C331.436,254.704,309.503,268.297,285.021,274.053z M456.173,313.613l6.08,30.4h-34.4l11.616-29.024
			c0.367-0.949,0.551-1.959,0.544-2.976v-88c0.001-4.418-3.581-8-7.999-8.001c-0.38,0-0.76,0.027-1.137,0.081l-52.208,7.456
			c-1.327-0.424-2.74-0.498-4.104-0.216c-2.155,0.448-4.351,0.676-6.552,0.68c-17.673,0.099-32.08-14.147-32.179-31.82
			c-0.099-17.673,14.147-32.08,31.82-32.179c7.062-0.04,13.939,2.258,19.559,6.535c1.51,1.129,3.375,1.677,5.256,1.544l71.2,7.12
			l-7.656,136.352C455.975,312.251,456.029,312.94,456.173,313.613z"/>
	</g>
</g>
<g>
</g>
<g>
</g>
<g>
</g>
<g>
</g>
<g>
</g>
<g>
</g>
<g>
</g>
<g>
</g>
<g>
</g>
<g>
</g>
<g>
</g>
<g>
</g>
<g>
</g>
<g>
</g>
<g>
</g>
</svg>
